<svg id="stickynote" xmlns="http://www.w3.org/2000/svg" width="60" height="60" viewBox="0 0 60 60">
  <path id="Vector" d="M1.875,10.725A1.872,1.872,0,0,1,0,8.85V1.875a1.875,1.875,0,0,1,3.75,0v6.95A1.878,1.878,0,0,1,1.875,10.725Z" transform="translate(18.85 5)" fill="#262626"/>
  <path id="Vector-2" data-name="Vector" d="M1.875,10.725A1.872,1.872,0,0,1,0,8.85V1.875a1.875,1.875,0,1,1,3.75,0v6.95A1.878,1.878,0,0,1,1.875,10.725Z" transform="translate(37.4 5)" fill="#262626"/>
  <path id="Vector-3" data-name="Vector" d="M17.025,1.6a1.475,1.475,0,0,1-.45,1.075C12.95,6.325,6.5,12.825,2.8,16.55a1.572,1.572,0,0,1-1.175.5A1.615,1.615,0,0,1,0,15.45V6.7A6.821,6.821,0,0,1,6.9.025C9.275,0,12.575,0,15.4,0A1.6,1.6,0,0,1,17.025,1.6Z" transform="translate(36.725 37.95)" fill="#262626"/>
  <path id="Vector-4" data-name="Vector" d="M17.025,1.6a1.475,1.475,0,0,1-.45,1.075C12.95,6.325,6.5,12.825,2.8,16.55a1.572,1.572,0,0,1-1.175.5A1.615,1.615,0,0,1,0,15.45V6.7A6.821,6.821,0,0,1,6.9.025C9.275,0,12.575,0,15.4,0A1.6,1.6,0,0,1,17.025,1.6Z" transform="translate(36.725 37.95)" fill="#262626"/>
  <path id="Vector-5" data-name="Vector" d="M42.675,2.5A2.526,2.526,0,0,0,38.65,4.525v.25A5.857,5.857,0,0,1,33.625,10.7,5.633,5.633,0,0,1,27.4,5.1V2.5A2.507,2.507,0,0,0,24.9,0H22.6a2.507,2.507,0,0,0-2.5,2.5V4.775a6,6,0,0,1-3,5.25,1.865,1.865,0,0,1-.3.175c-.025,0-.025.025-.05.025-.175.075-.35.15-.55.225-.05.025-.1.025-.15.05a3.967,3.967,0,0,1-.975.2H15.05a4.427,4.427,0,0,1-1.15,0h-.025a3.967,3.967,0,0,1-.975-.2,4.693,4.693,0,0,1-.75-.3,5.579,5.579,0,0,1-3.3-5.1V4.525a2.537,2.537,0,0,0-3.675-2.25c-.025.025-.05.025-.075.05H5.075c-.175.125-.325.25-.5.375-.275.225-.55.45-.8.7-.175.175-.35.35-.5.525a6.555,6.555,0,0,0-.55.625,3.483,3.483,0,0,0-.375.475,5.354,5.354,0,0,0-.325.475.345.345,0,0,0-.075.1,8.745,8.745,0,0,0-.6,1.05c-.05.05-.075.075-.075.125a6.076,6.076,0,0,0-.4.925,2.107,2.107,0,0,0-.15.35c-.05.1-.075.225-.125.325-.075.25-.15.525-.225.8a7.792,7.792,0,0,0-.225,1.1c-.05.275-.075.55-.1.85-.025.35-.05.7-.05,1.05v21.9A12.174,12.174,0,0,0,12.175,46.25h12.05a2.507,2.507,0,0,0,2.5-2.5V35.9a10.549,10.549,0,0,1,10.65-10.425c1.325-.025,4.55-.025,7.625-.025a2.507,2.507,0,0,0,2.5-2.5V12.175A12.1,12.1,0,0,0,42.675,2.5Zm-21.1,28.525a1.808,1.808,0,0,1-1.75,1.275h-9.1a.686.686,0,0,1-.325-.05,1.813,1.813,0,0,1-1.55-1.825,1.878,1.878,0,0,1,1.875-1.9h9.1a1.894,1.894,0,0,1,1.875,1.9A1.235,1.235,0,0,1,21.575,31.025Zm6.95-9.275a1.808,1.808,0,0,1-1.75,1.275H10.725a.686.686,0,0,1-.325-.05A1.813,1.813,0,0,1,8.85,21.15a1.878,1.878,0,0,1,1.875-1.9h16.05a1.878,1.878,0,0,1,1.875,1.9A1.235,1.235,0,0,1,28.525,21.75Z" transform="translate(6.25 8.75)" fill="#262626"/>
  <path id="Vector-6" data-name="Vector" d="M0,0H60V60H0Z" transform="translate(60 60) rotate(180)" fill="none" opacity="0"/>
</svg>
