<svg id="notification" xmlns="http://www.w3.org/2000/svg" width="32" height="32" viewBox="0 0 32 32">
  <path id="Vector" d="M10.728,0a8.006,8.006,0,0,0-8,8v3.853a6.371,6.371,0,0,1-.76,2.747L.435,17.147a2.559,2.559,0,0,0,1.44,3.907,27.9,27.9,0,0,0,17.693,0,2.67,2.67,0,0,0,1.44-3.907L19.475,14.6a6.547,6.547,0,0,1-.747-2.747V8A8.024,8.024,0,0,0,10.728,0Z" transform="translate(5.299 3.88)" fill="none" stroke="#fff" stroke-linecap="round" stroke-width="2"/>
  <path id="Vector-2" data-name="Vector" d="M4.933,1.68a8.072,8.072,0,0,0-1.28-.267A9.005,9.005,0,0,0,0,1.68a2.651,2.651,0,0,1,4.933,0Z" transform="translate(13.56 2.587)" fill="none" stroke="#fff" stroke-linecap="round" stroke-linejoin="round" stroke-width="2"/>
  <path id="Vector-3" data-name="Vector" d="M8,0A4.012,4.012,0,0,1,4,4,4.014,4.014,0,0,1,1.173,2.827,4.014,4.014,0,0,1,0,0" transform="translate(12.027 25.413)" fill="none" stroke="#fff" stroke-width="2"/>
  <path id="Vector-4" data-name="Vector" d="M0,0H32V32H0Z" fill="none" opacity="0"/>
</svg>
