<svg xmlns="http://www.w3.org/2000/svg" width="32" height="32" viewBox="0 0 32 32">
  <g id="vuesax_linear_message-question" data-name="vuesax/linear/message-question" transform="translate(-620 -252)">
    <g id="message-question" transform="translate(620 252)">
      <path id="Vector" d="M20,21.333H14.667L8.733,25.28a1.329,1.329,0,0,1-2.067-1.107v-2.84A6.3,6.3,0,0,1,0,14.667v-8A6.3,6.3,0,0,1,6.667,0H20a6.3,6.3,0,0,1,6.667,6.667v8A6.3,6.3,0,0,1,20,21.333Z" transform="translate(2.667 3.24)" fill="none" stroke="#fff" stroke-linecap="round" stroke-linejoin="round" stroke-width="2"/>
      <path id="Vector-2" data-name="Vector" d="M2.213,6V5.72a2.089,2.089,0,0,1,1.12-1.773A2.044,2.044,0,0,0,4.427,2.213,2.213,2.213,0,1,0,0,2.213" transform="translate(13.787 9.147)" fill="none" stroke="#fff" stroke-linecap="round" stroke-linejoin="round" stroke-width="2"/>
      <path id="Vector-3" data-name="Vector" d="M0,0H32V32H0Z" fill="none" opacity="0"/>
      <path id="Vector-4" data-name="Vector" d="M.5.5H.507" transform="translate(15.498 17.833)" fill="none" stroke="#fff" stroke-linecap="round" stroke-linejoin="round" stroke-width="2"/>
    </g>
  </g>
</svg>
