<svg xmlns="http://www.w3.org/2000/svg" width="70.14" height="70.14" viewBox="0 0 70.14 70.14"><path d="M58.39,53.81,52.58,44.5a62.78,62.78,0,0,1-10.51,7,69.21,69.21,0,0,1-12.24,5.08v7.09A1.78,1.78,0,0,0,31.6,65.4h6.93a1.78,1.78,0,0,0,1.78-1.78V56.53H56.88a1.78,1.78,0,0,0,1.51-2.72Z" fill="#262626"/><path d="M40.29,48.37a64.4,64.4,0,0,0,6.91-4.23,31,31,0,0,1-6.78-1.57,43.13,43.13,0,0,1-9.73-4.9,54.29,54.29,0,0,1-8.44-6.91l-4,5.77a1.77,1.77,0,0,0,1.47,2.78h1.07l-9.06,14.5a1.78,1.78,0,0,0-.05,1.8l.13.2A63.44,63.44,0,0,0,40.29,48.37ZM28.81,42.73a2.38,2.38,0,1,1-2.37,2.38A2.37,2.37,0,0,1,28.81,42.73Z" fill="#262626"/><path d="M39.71,14.65,36.63,10.4a3,3,0,1,0-3.12,0L23.26,24.54a1.76,1.76,0,0,0-.14,1.85,1.7,1.7,0,0,0,.57.65C33.17,25.61,37.82,18.59,39.71,14.65Z" fill="#262626"/><path d="M36.74,24.58a23.32,23.32,0,0,1-10.07,5.48,51.9,51.9,0,0,0,6.06,4.69c4.24,2.81,10.59,6,17.5,6l-.9-1.44H50.4a1.77,1.77,0,0,0,1.47-2.78l-6.32-9.18a1.77,1.77,0,0,0,1.33-2.81L42,17.86A27.15,27.15,0,0,1,36.74,24.58Zm1.69,10.28a2.39,2.39,0,1,1,2.37-2.39A2.38,2.38,0,0,1,38.43,34.86Z" fill="#262626"/><path d="M0,0H70.14V70.14H0Z" fill="none"/></svg>