<svg xmlns="http://www.w3.org/2000/svg" width="88.338" height="68.5" viewBox="0 0 88.338 68.5">
  <g id="Group_288" data-name="Group 288" transform="translate(0 -0.5)">
    <path id="Path_34" data-name="Path 34" d="M88.03,164.4a7.388,7.388,0,0,0-6.346-3.459H23.1a7.4,7.4,0,0,0-6.731,4.172L.87,197.6a5.576,5.576,0,0,0,5.454,4.156H68.656a7.031,7.031,0,0,0,6.291-3.891l13.394-26.846a6.774,6.774,0,0,0-.311-6.622Zm0,0" transform="translate(-0.72 -132.759)" fill="#262626"/>
    <path id="Path_35" data-name="Path 35" d="M12.492,27.356a7.4,7.4,0,0,1,6.731-4.172H74.392V16.128a5.382,5.382,0,0,0-5.47-5.276H36.754a.172.172,0,0,1-.092-.021L30.9,2.78A5.528,5.528,0,0,0,26.4.5H5.471A5.382,5.382,0,0,0,0,5.776V53.547Zm0,0" fill="#262626"/>
  </g>
</svg>
