<svg xmlns="http://www.w3.org/2000/svg" width="34.237" height="34.237" viewBox="0 0 34.237 34.237">
  <g id="edit" transform="translate(0 0)">
    <path id="Vector" d="M20.243,0H8.288C3.1,0,0,3.1,0,8.288v11.94c0,5.207,3.1,8.3,8.288,8.3h11.94c5.193,0,8.288-3.1,8.288-8.288V8.288C28.531,3.1,25.435,0,20.243,0ZM12.768,22.126a3.677,3.677,0,0,1-1.769.9l-3.509.5a3.5,3.5,0,0,1-.385.029,2.112,2.112,0,0,1-1.512-.585,2.177,2.177,0,0,1-.556-1.912l.5-3.509a3.5,3.5,0,0,1,.9-1.769L12.8,9.415c.114.3.228.6.385.942.143.3.3.613.471.9a7.139,7.139,0,0,0,.428.642,5.319,5.319,0,0,0,.457.6,1.944,1.944,0,0,0,.157.2,9.326,9.326,0,0,0,1.127,1.127,1.308,1.308,0,0,0,.185.171c.214.171.428.342.613.471a5.333,5.333,0,0,0,.7.456c.285.171.6.328.913.485s.628.271.927.371Zm9.158-9.158-1.312,1.327a.443.443,0,0,1-.314.128.354.354,0,0,1-.128-.014,8.847,8.847,0,0,1-6.034-6.034.424.424,0,0,1,.114-.428l1.327-1.327c2.168-2.168,4.237-2.126,6.362,0a4.578,4.578,0,0,1,1.612,3.21A4.627,4.627,0,0,1,21.926,12.967Z" transform="translate(2.853 2.853)" fill="#262626"/>
    <path id="Vector-2" data-name="Vector" d="M0,0H34.237V34.237H0Z" transform="translate(34.237 34.237) rotate(180)" fill="none" opacity="0"/>
  </g>
</svg>
