<?xml version="1.0" encoding="UTF-8"?>
<svg width="700px" height="700px" version="1.1" viewBox="0 0 700 700" xmlns="http://www.w3.org/2000/svg" xmlns:xlink="http://www.w3.org/1999/xlink">
 <g xmlns="http://www.w3.org/2000/svg">
  <path d="m411.65 70.996c-3.1172 0.007812-6.0664 1.4258-7.9961 3.8633l-42.023 55.426-217.2 0.003906c-12.613 0-23.316 6.3164-31.598 14.945v-1.7617c0-17.672 13.918-31.598 31.598-31.598h197.5c5.6367 0.25391 10.43-4.1133 10.684-9.7578 0.25391-5.6445-4.1133-10.43-9.7578-10.684-0.3125-0.011719-0.62109-0.011719-0.92188 0l-197.51 0.003906c-28.652 0-52.035 23.391-52.035 52.035v47.918c-0.007813 0.09375-0.011719 0.17578-0.011719 0.26562v247.02c0 28.652 23.395 52.035 52.051 52.035h409.34c28.648 0 52.035-23.383 52.035-52.035l-0.003907-315.64c0-28.648-23.391-52.035-52.035-52.035zm-128.68 164.91c3.5859-0.49219 7.7266 2.2852 11.652 4.3125l135.1 70.039c5.2266 2.7109 5.2969 12.449 0 15.031l-135.1 70.023c-5.3008 2.582-10.859 6.75-15.02 2.5898v-160.27c1.0391-1.0391 2.1641-1.5625 3.3672-1.7227z"/>
 </g>
</svg>
