<svg xmlns="http://www.w3.org/2000/svg" width="24" height="24" viewBox="0 0 24 24">
  <g id="Canva_Templates" data-name="Canva Templates" transform="translate(-556 -188)">
    <g id="additem">
      <path id="Vector" d="M11.43,3.43V4.77c-2.62.21-4.11,1.89-4.11,4.66V14H3.43Q-.005,14,0,10.57V3.43Q0-.005,3.43,0H8Q11.435,0,11.43,3.43Z" transform="translate(558 190)" fill="#292d32"/>
      <path id="Vector-2" data-name="Vector" d="M8,0H3.43Q0,0,0,3.43v7.14Q0,14,3.43,14H8q3.435,0,3.43-3.43V3.43Q11.43,0,8,0ZM7.56,7.75H6.68v.88a.75.75,0,0,1-1.5,0V7.75H4.3a.75.75,0,0,1,0-1.5h.88V5.37a.75.75,0,0,1,1.5,0v.88h.88a.75.75,0,0,1,0,1.5Z" transform="translate(566.57 196)" fill="#292d32"/>
      <path id="Vector-3" data-name="Vector" d="M0,0H24V24H0Z" transform="translate(556 188)" fill="none" opacity="0"/>
    </g>
  </g>
</svg>
