<svg width="24" height="24" viewBox="0 0 24 24" fill="none" xmlns="http://www.w3.org/2000/svg">
<path d="M13.5 16.5H4.5C2.85 16.5 1.5 17.85 1.5 19.5C1.5 21.15 2.85 22.5 4.5 22.5H13.5C15.15 22.5 16.5 21.15 16.5 19.5C16.5 17.85 15.15 16.5 13.5 16.5ZM5.925 19.8C5.925 19.875 5.85 19.95 5.775 20.025C5.625 20.175 5.475 20.25 5.25 20.25C5.175 20.25 5.175 20.25 5.1 20.25C5.025 20.25 5.025 20.25 4.95 20.175C4.875 20.175 4.875 20.1 4.8 20.1L4.725 20.025C4.65 19.95 4.575 19.875 4.575 19.8C4.5 19.725 4.5 19.575 4.5 19.5C4.5 19.275 4.575 19.125 4.725 18.975L4.8 18.9C4.875 18.9 4.875 18.825 4.95 18.825C5.025 18.825 5.025 18.825 5.1 18.75C5.325 18.675 5.625 18.75 5.775 18.975C5.925 19.125 6 19.275 6 19.5C6 19.575 6 19.725 5.925 19.8ZM9.675 19.8C9.675 19.875 9.6 19.95 9.525 20.025C9.525 20.025 9.45 20.1 9.375 20.1C9.375 20.1 9.3 20.175 9.225 20.175C9.15 20.175 9.15 20.175 9.075 20.25C9 20.25 9 20.25 8.925 20.25C8.7 20.25 8.55 20.175 8.4 20.025C8.325 19.95 8.25 19.875 8.25 19.8C8.25 19.725 8.175 19.575 8.175 19.5C8.175 19.275 8.25 19.125 8.4 18.975C8.55 18.825 8.85 18.75 9.075 18.75C9.15 18.75 9.15 18.75 9.225 18.825C9.3 18.825 9.3 18.9 9.375 18.9C9.45 18.9 9.45 18.975 9.525 18.975L9.6 19.05C9.6 19.125 9.675 19.125 9.675 19.2C9.675 19.275 9.675 19.275 9.75 19.35C9.75 19.425 9.75 19.425 9.75 19.5C9.75 19.575 9.75 19.725 9.675 19.8ZM13.275 20.025C13.275 20.025 13.2 20.1 13.125 20.1C13.125 20.1 13.05 20.175 12.975 20.175C12.9 20.175 12.9 20.175 12.825 20.25C12.75 20.25 12.75 20.25 12.675 20.25C12.6 20.25 12.6 20.25 12.525 20.25C12.45 20.25 12.45 20.25 12.375 20.175C12.3 20.175 12.3 20.1 12.225 20.1L12.15 20.025C12.075 19.875 12 19.725 12 19.5C12 19.425 12 19.425 12 19.35C12 19.275 12 19.275 12.075 19.2C12.075 19.125 12.075 19.125 12.15 19.05C12.15 18.975 12.225 18.975 12.225 18.975L12.3 18.9C12.375 18.9 12.375 18.825 12.45 18.825C12.525 18.825 12.525 18.825 12.6 18.75C12.675 18.75 12.825 18.75 12.9 18.75C12.975 18.75 12.975 18.75 13.05 18.825C13.125 18.825 13.125 18.9 13.2 18.9C13.275 18.9 13.275 18.975 13.35 18.975L13.425 19.05C13.425 19.125 13.5 19.125 13.5 19.2C13.5 19.275 13.5 19.275 13.575 19.35C13.575 19.425 13.575 19.425 13.575 19.5C13.5 19.725 13.425 19.875 13.275 20.025Z" fill="#292D32"/>
<path d="M22.5 10.5C22.5 10.425 22.5 10.35 22.425 10.275L18.675 2.025C18.525 1.65 18.3 1.5 18 1.5H15.75H12.75C12.6 1.5 12.525 1.5 12.375 1.575C12.375 1.575 12.3 1.575 12.3 1.65C12.225 1.725 12.15 1.725 12.15 1.8L7.65 7.8C7.65 7.875 7.575 7.875 7.575 7.95C7.575 7.95 7.575 7.95 7.575 8.025C7.575 8.1 7.5 8.175 7.5 8.25V11.25H6C3.9 11.25 2.25 12.9 2.25 15C2.25 15.45 2.55 15.75 3 15.75H14.25C14.7 15.75 15 15.45 15 15V12C15 11.925 15 11.85 14.925 11.7C14.925 11.7 14.925 11.625 14.85 11.625C14.85 11.55 14.85 11.55 14.775 11.475L12 8.025L13.35 3H15.3L18.75 10.575L17.25 11.025V10.5C17.25 10.05 16.95 9.75 16.5 9.75C16.05 9.75 15.75 10.05 15.75 10.5V12C15.75 12 15.75 12 15.75 12.075C15.75 12.15 15.75 12.15 15.75 12.225C15.75 12.3 15.825 12.375 15.825 12.45V12.525L16.65 13.8C17.175 14.625 18.15 15.15 19.125 15.15C20.55 15.15 21.75 14.175 22.05 12.75L22.425 10.8C22.5 10.575 22.5 10.575 22.5 10.5ZM9 9H10.875L12.675 11.25H12.375C11.775 11.25 11.175 10.875 10.875 10.2C10.725 9.9 10.5 9.75 10.2 9.75H9V9ZM11.1 5.7L10.65 7.5H9.75L11.1 5.7ZM16.95 3H17.55L20.775 10.05L20.25 10.2L16.95 3Z" fill="#292D32"/>
</svg>
