<svg id="trash" xmlns="http://www.w3.org/2000/svg" width="26.349" height="26.349" viewBox="0 0 26.349 26.349">
  <path id="Vector" d="M19.761.549C16.106.187,12.428,0,8.761,0A64.849,64.849,0,0,0,2.24.329L0,.549" transform="translate(3.294 6.016)" fill="none" stroke="#262626" stroke-linecap="round" stroke-linejoin="round" stroke-width="1.5"/>
  <path id="Vector-2" data-name="Vector" d="M0,3.261.242,1.822C.417.779.549,0,2.4,0H5.281c1.855,0,2,.823,2.163,1.833l.242,1.427" transform="translate(9.332 2.196)" fill="none" stroke="#262626" stroke-linecap="round" stroke-linejoin="round" stroke-width="1.5"/>
  <path id="Vector-3" data-name="Vector" d="M15.041,0l-.714,11.055c-.121,1.724-.22,3.063-3.283,3.063H4c-3.063,0-3.162-1.339-3.283-3.063L0,0" transform="translate(5.654 10.034)" fill="none" stroke="#262626" stroke-linecap="round" stroke-linejoin="round" stroke-width="1.5"/>
  <path id="Vector-4" data-name="Vector" d="M0,0H3.656" transform="translate(11.341 18.115)" fill="none" stroke="#262626" stroke-linecap="round" stroke-linejoin="round" stroke-width="1.5"/>
  <path id="Vector-5" data-name="Vector" d="M0,0H5.489" transform="translate(10.43 13.723)" fill="none" stroke="#262626" stroke-linecap="round" stroke-linejoin="round" stroke-width="1.5"/>
  <path id="Vector-6" data-name="Vector" d="M0,0H26.349V26.349H0Z" fill="none" opacity="0"/>
</svg>
