<svg xmlns="http://www.w3.org/2000/svg" width="26.475" height="26.475" viewBox="0 0 26.475 26.475">
  <g id="vuesax_bold_receive-square" data-name="vuesax/bold/receive-square" transform="translate(0 0)">
    <g id="receive-square" transform="translate(0 0)">
      <path id="Vector" d="M0,0H26.475V26.475H0Z" fill="none" opacity="0"/>
      <path id="Vector-2" data-name="Vector" d="M15.653,0H6.409C2.394,0,0,2.394,0,6.409v9.233c0,4.026,2.394,6.42,6.409,6.42h9.233c4.015,0,6.409-2.394,6.409-6.409V6.409C22.062,2.394,19.669,0,15.653,0ZM7.137,9.906a.832.832,0,0,1,1.169,0l1.9,1.9V4.975a.827.827,0,0,1,1.655,0V11.8l1.9-1.9a.827.827,0,1,1,1.169,1.169l-3.309,3.309a.856.856,0,0,1-.265.177.791.791,0,0,1-.32.066.831.831,0,0,1-.32-.066.856.856,0,0,1-.265-.177L7.137,11.075A.832.832,0,0,1,7.137,9.906ZM17.915,16.79A21.78,21.78,0,0,1,11.031,17.9,21.78,21.78,0,0,1,4.148,16.79a.831.831,0,0,1-.518-1.048.818.818,0,0,1,1.048-.518,20.224,20.224,0,0,0,12.719,0,.831.831,0,0,1,1.048.518A.841.841,0,0,1,17.915,16.79Z" transform="translate(2.206 2.206)" fill="#262626"/>
    </g>
  </g>
</svg>
