<svg width="24" height="24" viewBox="0 0 24 24" fill="none" xmlns="http://www.w3.org/2000/svg">
<rect x="2" y="2" width="20" height="20" rx="5.6" fill="white"/>
<path d="M16.19 2H7.81C4.17 2 2 4.17 2 7.81V16.18C2 19.83 4.17 22 7.81 22H16.18C19.82 22 21.99 19.83 21.99 16.19V7.81C22 4.17 19.83 2 16.19 2ZM16.82 14.24L12.53 18.53C12.4605 18.5998 12.3779 18.6552 12.287 18.6929C12.196 18.7307 12.0985 18.7502 12 18.7502C11.9015 18.7502 11.804 18.7307 11.713 18.6929C11.6221 18.6552 11.5395 18.5998 11.47 18.53L7.18 14.24C7.10631 14.1713 7.04721 14.0885 7.00622 13.9965C6.96523 13.9045 6.94319 13.8052 6.94141 13.7045C6.93963 13.6038 6.95816 13.5038 6.99588 13.4104C7.0336 13.317 7.08974 13.2322 7.16096 13.161C7.23218 13.0897 7.31701 13.0336 7.4104 12.9959C7.50379 12.9582 7.60382 12.9396 7.70452 12.9414C7.80523 12.9432 7.90454 12.9652 7.99654 13.0062C8.08854 13.0472 8.17134 13.1063 8.24 13.18L11.25 16.19V6C11.25 5.80109 11.329 5.61032 11.4697 5.46967C11.6103 5.32902 11.8011 5.25 12 5.25C12.1989 5.25 12.3897 5.32902 12.5303 5.46967C12.671 5.61032 12.75 5.80109 12.75 6V16.19L15.76 13.18C15.9011 13.0405 16.0916 12.9623 16.29 12.9623C16.4884 12.9623 16.6789 13.0405 16.82 13.18C16.89 13.2493 16.9455 13.3319 16.9833 13.4229C17.0211 13.5139 17.0404 13.6115 17.04 13.71C17.038 13.9085 16.9591 14.0985 16.82 14.24Z" fill="#292D32"/>
</svg>
