<svg xmlns="http://www.w3.org/2000/svg" width="26.474" height="26.474" viewBox="0 0 26.474 26.474">
  <g id="edit" transform="translate(0 0)">
    <path id="Vector" d="M15.653,0H6.409C2.394,0,0,2.394,0,6.409v9.233c0,4.026,2.394,6.42,6.409,6.42h9.233c4.015,0,6.409-2.394,6.409-6.409V6.409C22.062,2.394,19.668,0,15.653,0ZM9.873,17.109A2.843,2.843,0,0,1,8.5,17.8l-2.714.386a2.7,2.7,0,0,1-.3.022,1.633,1.633,0,0,1-1.169-.452,1.684,1.684,0,0,1-.43-1.478l.386-2.714A2.706,2.706,0,0,1,4.975,12.2l4.92-4.92c.088.232.176.463.3.728.11.232.232.474.364.695a5.52,5.52,0,0,0,.331.5,4.113,4.113,0,0,0,.353.463,1.5,1.5,0,0,0,.121.154,7.212,7.212,0,0,0,.871.871,1.012,1.012,0,0,0,.143.132c.165.132.331.265.474.364a4.124,4.124,0,0,0,.541.353c.221.132.463.254.706.375s.485.21.717.287Zm7.082-7.082L15.94,11.053a.342.342,0,0,1-.243.1.274.274,0,0,1-.1-.011,6.841,6.841,0,0,1-4.666-4.666.328.328,0,0,1,.088-.331l1.026-1.026c1.677-1.677,3.276-1.644,4.92,0A3.54,3.54,0,0,1,18.212,7.6,3.578,3.578,0,0,1,16.955,10.027Z" transform="translate(2.206 2.206)" fill="#262626"/>
    <path id="Vector-2" data-name="Vector" d="M0,0H26.474V26.474H0Z" transform="translate(26.474 26.474) rotate(180)" fill="none" opacity="0"/>
  </g>
</svg>
