<svg xmlns="http://www.w3.org/2000/svg" width="24" height="24" viewBox="0 0 24 24">
  <g id="vuesax_bold_directbox-notif" data-name="vuesax/bold/directbox-notif" transform="translate(-172 -188)">
    <g id="directbox-notif">
      <path id="Vector" d="M15.76.23A8.021,8.021,0,0,0,13.72,0a2.862,2.862,0,0,0-2.09.7.647.647,0,0,0-.09.08l-.95,1.01a2.131,2.131,0,0,1-3.04,0L6.6.79A.382.382,0,0,0,6.51.7,2.9,2.9,0,0,0,4.42,0,7.594,7.594,0,0,0,2.38.23C0,.87,0,2.76,0,4.42v.93C0,7.86,0,10.7,5.35,10.7h7.44c3.55,0,5.35-1.8,5.35-5.35V4.42C18.14,2.76,18.14.87,15.76.23Z" transform="translate(174.93 199.3)" fill="#242424"/>
      <path id="Vector-2" data-name="Vector" d="M10,0H4.42C0,0,0,2.35,0,4.42v3.7a.647.647,0,0,1,.13-.04A9.224,9.224,0,0,1,2.56,7.8a4.3,4.3,0,0,1,2.99,1,1.747,1.747,0,0,1,.29.26l.94.99a.58.58,0,0,0,.43.17.573.573,0,0,0,.42-.16l.96-1.01a2.1,2.1,0,0,1,.27-.24,4.322,4.322,0,0,1,3-1.01,9.224,9.224,0,0,1,2.43.28.647.647,0,0,1,.13.04V4.42C14.42,2.35,14.42,0,10,0ZM8.76,6.5H5.66a.7.7,0,0,1,0-1.4h3.1a.7.7,0,0,1,0,1.4Zm.78-2.79H4.88a.7.7,0,0,1,0-1.4H9.54a.7.7,0,0,1,0,1.4Z" transform="translate(176.79 190)" fill="#242424"/>
      <path id="Vector-3" data-name="Vector" d="M0,0H24V24H0Z" transform="translate(172 188)" fill="none" opacity="0"/>
      <path id="Vector-4" data-name="Vector" d="M0,0H24V24H0Z" transform="translate(196 212) rotate(180)" fill="none" opacity="0"/>
    </g>
  </g>
</svg>
