<?xml version="1.0" encoding="UTF-8"?>
<svg id="Layer_2" data-name="Layer 2" xmlns="http://www.w3.org/2000/svg" viewBox="0 0 24 24">
  <g id="Layer_1-2" data-name="Layer 1">
    <g id="vuesax_bold_house" data-name="vuesax bold house">
      <g id="house">
        <path id="Vector" d="M0,0h24v24H0V0Z" fill="none" stroke-width="0"/>
        <path id="Vector-2" d="M22,21.25h-1v-11.27c0-.62-.28-1.2-.77-1.58l-1.23-.96-.02-2.45c0-.55-.45-.99-1-.99,0,0,0,0,0,0h-3.41l-1.34-1.04c-.72-.57-1.74-.57-2.46,0l-7,5.44c-.49.38-.77.96-.77,1.57l-.05,11.28h-.95c-.41,0-.75.34-.75.75s.34.75.75.75h20c.41,0,.75-.34.75-.75s-.34-.75-.75-.75ZM14.5,21.25h-5v-2.75c0-.83.67-1.5,1.5-1.5h2c.83,0,1.5.67,1.5,1.5v2.75Z" fill="#262626" stroke-width="0"/>
        <g>
          <path d="M8.14,10.93l-.5.44c-.18-.25-.36-.37-.54-.37-.09,0-.16.02-.22.07s-.08.1-.08.16.02.12.06.17c.06.07.22.22.5.46.26.22.42.35.47.41.14.14.23.27.29.4.06.13.09.27.09.42,0,.29-.1.53-.3.72s-.47.29-.79.29c-.25,0-.48-.06-.66-.19-.19-.12-.35-.32-.48-.59l.57-.34c.17.31.37.47.59.47.12,0,.21-.03.29-.1.08-.07.12-.15.12-.24,0-.08-.03-.16-.09-.24-.06-.08-.19-.21-.4-.37-.39-.32-.64-.56-.75-.73s-.17-.34-.17-.51c0-.25.09-.46.28-.64.19-.18.42-.27.7-.27.18,0,.35.04.51.12.16.08.34.23.52.45Z" fill="#fff" stroke-width="0"/>
          <path d="M10.54,10.36c.5,0,.94.18,1.3.55s.54.81.54,1.33-.18.96-.54,1.32c-.36.36-.79.54-1.3.54s-.98-.19-1.33-.55c-.35-.37-.53-.81-.53-1.32,0-.34.08-.65.25-.94s.39-.51.68-.68c.29-.17.6-.25.93-.25ZM10.53,11.02c-.33,0-.61.11-.83.34-.23.23-.34.52-.34.88,0,.39.14.71.42.94.22.18.47.27.76.27.32,0,.6-.12.82-.35s.34-.52.34-.86-.11-.63-.34-.86-.51-.35-.83-.35Z" fill="#fff" stroke-width="0"/>
          <path d="M13.02,10.45h.68v2.92h.99v.65h-1.67v-3.56Z" fill="#fff" stroke-width="0"/>
          <path d="M15.21,10.45h.8c.52,0,.9.06,1.15.19.25.13.46.34.62.63.16.29.24.63.24,1.01,0,.27-.05.53-.14.76-.09.23-.22.42-.38.57-.16.15-.33.26-.52.32-.19.06-.51.09-.97.09h-.82v-3.56ZM15.88,11.1v2.25h.31c.31,0,.54-.04.67-.11s.25-.19.34-.36c.09-.17.13-.38.13-.62,0-.38-.11-.67-.32-.88-.19-.19-.5-.28-.92-.28h-.23Z" fill="#fff" stroke-width="0"/>
        </g>
      </g>
    </g>
  </g>
</svg>