<?xml version="1.0" encoding="UTF-8"?>
<svg id="Layer_2" data-name="Layer 2" xmlns="http://www.w3.org/2000/svg" viewBox="0 0 24 24">
  <g id="Layer_1-2" data-name="Layer 1">
    <g id="vuesax_bold_house" data-name="vuesax bold house">
      <g id="house">
        <path id="Vector" d="M0,0h24v24H0V0Z" fill="none" stroke-width="0"/>
        <path id="Vector-2" d="M22,21.25h-1v-11.27c0-.62-.28-1.2-.77-1.58l-1.23-.96-.02-2.45c0-.55-.45-.99-1-.99,0,0,0,0,0,0h-3.41l-1.34-1.04c-.72-.57-1.74-.57-2.46,0l-7,5.44c-.49.38-.77.96-.77,1.57l-.05,11.28h-.95c-.41,0-.75.34-.75.75s.34.75.75.75h20c.41,0,.75-.34.75-.75s-.34-.75-.75-.75ZM14.5,21.25h-5v-2.75c0-.83.67-1.5,1.5-1.5h2c.83,0,1.5.67,1.5,1.5v2.75Z" fill="#262626" stroke-width="0"/>
        <g>
          <path d="M7.37,9.97h.8l1,3.02,1.01-3.02h.8l.73,4.33h-.8l-.46-2.74-.92,2.74h-.73l-.91-2.74-.48,2.74h-.8l.75-4.33Z" fill="#fff" stroke-width="0"/>
          <path d="M12.38,9.97h.82v3.55h1.2v.79h-2.03v-4.33Z" fill="#fff" stroke-width="0"/>
          <path d="M17.31,10.56l-.61.54c-.21-.3-.43-.45-.65-.45-.11,0-.2.03-.27.09s-.1.12-.1.2.02.14.07.21c.07.09.27.27.6.56.31.26.51.43.57.5.17.17.29.33.36.48s.1.32.1.51c0,.36-.12.65-.37.88-.25.23-.57.35-.96.35-.31,0-.58-.08-.81-.23-.23-.15-.42-.39-.59-.71l.69-.42c.21.38.45.57.72.57.14,0,.26-.04.36-.12.1-.08.14-.18.14-.29,0-.1-.04-.2-.11-.29-.07-.1-.23-.25-.48-.45-.47-.39-.78-.68-.92-.89s-.21-.42-.21-.63c0-.3.11-.56.34-.77.23-.21.51-.32.85-.32.22,0,.42.05.62.15.2.1.41.28.64.55Z" fill="#fff" stroke-width="0"/>
        </g>
      </g>
    </g>
  </g>
</svg>