<svg xmlns="http://www.w3.org/2000/svg" width="19.738" height="19.738" viewBox="0 0 19.738 19.738">
  <path id="Path_27" data-name="Path 27" d="M13.959,0a5.673,5.673,0,0,1,4.176,1.628A5.706,5.706,0,0,1,19.73,5.771v8.188A5.719,5.719,0,0,1,18.1,18.177a5.87,5.87,0,0,1-4.176,1.554H5.8a5.8,5.8,0,0,1-4.135-1.554A5.722,5.722,0,0,1,0,13.926V5.771A5.446,5.446,0,0,1,5.771,0ZM14,1.833H5.8A4.059,4.059,0,0,0,2.9,2.86a3.963,3.963,0,0,0-1.069,2.91v8.156A4.009,4.009,0,0,0,2.9,16.869,4.111,4.111,0,0,0,5.8,17.9h8.123a4.111,4.111,0,0,0,2.9-1.028,3.889,3.889,0,0,0,1.151-2.91V5.771A4.111,4.111,0,0,0,16.91,2.9,3.963,3.963,0,0,0,14,1.833Zm-4.135,2.9a5.1,5.1,0,1,1-5.1,5.1,5.128,5.128,0,0,1,5.1-5.1Zm0,1.825a3.264,3.264,0,1,0,3.264,3.264A3.28,3.28,0,0,0,9.865,6.56Zm5.295-3.1a1.151,1.151,0,1,1-1.151,1.151A1.151,1.151,0,0,1,15.159,3.46Z" transform="translate(0.005 0.004)" fill="#666"/>
</svg>
