<svg id="vuesax_bold_mouse-square" data-name="vuesax/bold/mouse-square" xmlns="http://www.w3.org/2000/svg" width="70.141" height="70.141" viewBox="0 0 70.141 70.141">
  <g id="mouse-square" transform="translate(0)">
    <path id="Vector" d="M0,0H70.14V70.14H0Z" fill="none" opacity="0"/>
    <path id="Vector-2" data-name="Vector" d="M55.528,16.132V33.317a1.467,1.467,0,0,1-1.9,1.4L42.143,31.154A8.821,8.821,0,0,0,31.1,42.23l3.536,11.4a1.467,1.467,0,0,1-1.4,1.9h-17.1C6.05,55.528,0,49.507,0,39.4V16.132C0,6.02,6.05,0,16.132,0H39.4C49.478,0,55.528,6.02,55.528,16.132Z" transform="translate(5.845 5.845)" fill="#262626"/>
    <path id="Vector-3" data-name="Vector" d="M23.234,14.1,18.47,15.7a4.4,4.4,0,0,0-2.806,2.806l-1.607,4.764a4.431,4.431,0,0,1-8.446-.088L.2,5.8A4.44,4.44,0,0,1,5.757.213L23.175,5.62A4.46,4.46,0,0,1,23.234,14.1Z" transform="translate(40.945 40.965)" fill="#262626"/>
  </g>
</svg>
