<svg xmlns="http://www.w3.org/2000/svg" width="24" height="24" viewBox="0 0 24 24">
  <g id="vuesax_bold_link-square" data-name="vuesax/bold/link-square" transform="translate(-620 -316)">
    <g id="link-square">
      <path id="Vector" d="M0,0H24V24H0Z" transform="translate(620 316)" fill="none" opacity="0"/>
      <path id="Vector-2" data-name="Vector" d="M14.19,0H5.81C2.17,0,0,2.17,0,5.81v8.37C0,17.83,2.17,20,5.81,20h8.37c3.64,0,5.81-2.17,5.81-5.81V5.81C20,2.17,17.83,0,14.19,0ZM6.18,14.77H6.11a4.044,4.044,0,0,1-2.56-1.26,4.463,4.463,0,0,1,0-6.09l2.19-2.3a4.039,4.039,0,0,1,5.9,0,4.463,4.463,0,0,1,0,6.09l-1.09,1.15a.75.75,0,1,1-1.09-1.03l1.09-1.15a2.938,2.938,0,0,0,0-4.02,2.62,2.62,0,0,0-3.73,0L4.63,8.46a2.938,2.938,0,0,0,0,4.02,2.564,2.564,0,0,0,1.62.8.751.751,0,0,1,.67.82A.74.74,0,0,1,6.18,14.77Zm10.27-2.18-2.19,2.3a4.039,4.039,0,0,1-5.9,0,4.463,4.463,0,0,1,0-6.09L9.45,7.65a.75.75,0,1,1,1.09,1.03L9.45,9.83a2.938,2.938,0,0,0,0,4.02,2.611,2.611,0,0,0,3.73,0l2.19-2.3a2.938,2.938,0,0,0,0-4.02,2.564,2.564,0,0,0-1.62-.8.751.751,0,0,1-.67-.82.738.738,0,0,1,.82-.67A4.094,4.094,0,0,1,16.46,6.5,4.474,4.474,0,0,1,16.45,12.59Z" transform="translate(622 318)" fill="#242424"/>
    </g>
  </g>
</svg>
