<svg xmlns="http://www.w3.org/2000/svg" width="19.731" height="19.731" viewBox="0 0 19.731 19.731">
  <path id="Path_28" data-name="Path 28" d="M18.276,0H1.455A1.439,1.439,0,0,0,0,1.414v16.9a1.439,1.439,0,0,0,1.455,1.414H18.276a1.434,1.434,0,0,0,1.455-1.414V1.414A1.439,1.439,0,0,0,18.276,0ZM5.977,16.525H3V7.6H5.977ZM4.5,6.38H4.472A1.542,1.542,0,1,1,4.514,3.3,1.543,1.543,0,1,1,4.489,6.38ZM16.722,16.525H13.738V11.757c0-1.192-.428-2.014-1.5-2.014A1.648,1.648,0,0,0,10.7,10.828a1.938,1.938,0,0,0-.09.723v4.974H7.629s.041-8.073,0-8.912h2.984V8.879a2.96,2.96,0,0,1,2.68-1.48c1.965,0,3.437,1.283,3.437,4.02v5.105Z" fill="#666"/>
</svg>
