<svg xmlns="http://www.w3.org/2000/svg" width="32" height="32" viewBox="0 0 32 32">
  <g id="vuesax_bold_link-circle" data-name="vuesax/bold/link-circle" transform="translate(-684 -316)">
    <g id="link-circle" transform="translate(684 316)">
      <path id="Vector" d="M0,0H32V32H0Z" fill="none" opacity="0"/>
      <path id="Vector-2" data-name="Vector" d="M13.333,0A13.333,13.333,0,1,0,26.667,13.333,13.338,13.338,0,0,0,13.333,0ZM8.867,17.027a1,1,0,0,1-.933.653.8.8,0,0,1-.347-.067A4.891,4.891,0,0,1,5.027,15.4,5.3,5.3,0,0,1,6.853,8.413L9.973,6.48A4.813,4.813,0,0,1,16.76,8.24a5.3,5.3,0,0,1-1.827,6.987l-.347.253a1,1,0,0,1-1.173-1.627l.413-.293a3.3,3.3,0,0,0,1.187-4.347,2.856,2.856,0,0,0-1.76-1.387,2.776,2.776,0,0,0-2.213.347L7.893,10.12A3.289,3.289,0,0,0,6.76,14.44a2.892,2.892,0,0,0,1.507,1.307A1,1,0,0,1,8.867,17.027ZM19.893,18.2l-3.12,1.933A4.812,4.812,0,0,1,10,18.36a5.3,5.3,0,0,1,1.827-6.987l.347-.253a1,1,0,0,1,1.173,1.627l-.413.293a3.3,3.3,0,0,0-1.187,4.347,2.856,2.856,0,0,0,1.76,1.387,2.776,2.776,0,0,0,2.213-.347l3.12-1.933a3.289,3.289,0,0,0,1.133-4.32,2.892,2.892,0,0,0-1.507-1.307A1,1,0,0,1,19.16,9a4.891,4.891,0,0,1,2.56,2.213A5.314,5.314,0,0,1,19.893,18.2Z" transform="translate(2.667 2.667)" fill="#262626"/>
    </g>
  </g>
</svg>
