<svg xmlns="http://www.w3.org/2000/svg" width="32.71" height="32.71" viewBox="0 0 32.71 32.71">
  <g id="vuesax_bold_location" data-name="vuesax/bold/location" transform="translate(-428 -188)">
    <path id="Vector" d="M23.851,9.132A11.756,11.756,0,0,0,12.1,0h-.014A11.754,11.754,0,0,0,.341,9.118c-1.595,7.033,2.712,12.989,6.61,16.737a7.39,7.39,0,0,0,10.29,0C21.139,22.106,25.446,16.164,23.851,9.132ZM12.1,15.96A4.293,4.293,0,1,1,16.4,11.667,4.293,4.293,0,0,1,12.1,15.96Z" transform="translate(432.252 190.385)" fill="#fff"/>
    <path id="Vector-2" data-name="Vector" d="M0,0H32.71V32.71H0Z" transform="translate(428 188)" fill="none" opacity="0"/>
    <path id="Vector-3" data-name="Vector" d="M0,0H32.71V32.71H0Z" transform="translate(460.71 220.71) rotate(180)" fill="none" opacity="0"/>
  </g>
</svg>
