<svg xmlns="http://www.w3.org/2000/svg" width="24" height="24" viewBox="0 0 24 24">
  <g id="Logo_Creation_Request" data-name="Logo Creation Request" transform="translate(-364 -380)">
    <g id="colorfilter">
      <path id="Vector" d="M12,5.21a5.947,5.947,0,0,1-2,4.46,5.931,5.931,0,0,1-4,1.54A5.994,5.994,0,0,1,3.04,0,7.491,7.491,0,0,0,8.02,4.44,7.173,7.173,0,0,0,10,4.71a7.7,7.7,0,0,0,1.94-.25A4.647,4.647,0,0,1,12,5.21Z" transform="translate(366 390.79)" fill="#292d32"/>
      <path id="Vector-2" data-name="Vector" d="M12,6a6,6,0,0,1-4.42,5.79,6.049,6.049,0,0,1-3.16,0A6,6,0,1,1,12,6Z" transform="translate(370 382)" fill="#292d32"/>
      <path id="Vector-3" data-name="Vector" d="M8.75,5.21a6,6,0,0,1-6,6A5.915,5.915,0,0,1,0,10.54,7.394,7.394,0,0,0,2.25,5.21a6.531,6.531,0,0,0-.08-1L2.12,3.9A7.442,7.442,0,0,0,5.71,0,6,6,0,0,1,8.75,5.21Z" transform="translate(377.25 390.79)" fill="#292d32"/>
      <path id="Vector-4" data-name="Vector" d="M0,0H24V24H0Z" transform="translate(364 380)" fill="none" opacity="0"/>
    </g>
  </g>
</svg>
