<svg xmlns="http://www.w3.org/2000/svg" width="32" height="32" viewBox="0 0 32 32">
  <g id="vuesax_bold_mouse-circle" data-name="vuesax/bold/mouse-circle" transform="translate(-620 -636)">
    <g id="mouse-circle" transform="translate(620 636)">
      <path id="Vector" d="M0,0H32V32H0Z" fill="none" opacity="0"/>
      <path id="Vector-2" data-name="Vector" d="M10.6,6.431l-2.173.733a2.007,2.007,0,0,0-1.28,1.28l-.733,2.173a2.021,2.021,0,0,1-3.853-.04L.093,2.644A2.026,2.026,0,0,1,2.627.1l7.947,2.467A2.035,2.035,0,0,1,10.6,6.431Z" transform="translate(17.347 17.356)" fill="#262626"/>
      <path id="Vector-3" data-name="Vector" d="M25.338,12.671a14.481,14.481,0,0,1-.107,1.707.655.655,0,0,1-.853.52l-6.467-2.013a4.025,4.025,0,0,0-5.04,5.053l2,6.44a.662.662,0,0,1-.533.853,13.987,13.987,0,0,1-1.667.107A12.667,12.667,0,0,1,0,12.311,12.813,12.813,0,0,1,12.311,0,12.667,12.667,0,0,1,25.338,12.671Z" transform="translate(2.662 2.662)" fill="#262626"/>
    </g>
  </g>
</svg>
