<svg id="vuesax_bold_shopping-bag" data-name="vuesax/bold/shopping-bag" xmlns="http://www.w3.org/2000/svg" width="70.141" height="70.14" viewBox="0 0 70.141 70.14">
  <g id="shopping-bag">
    <path id="Vector" d="M0,0H70.14V70.14H0Z" fill="none" opacity="0"/>
    <path id="Vector-2" data-name="Vector" d="M25.572,21.919a2.208,2.208,0,0,1-2.192-2.192V9.5a4.744,4.744,0,0,0-5.114-5.114H9.5A4.744,4.744,0,0,0,4.384,9.5V19.727a2.208,2.208,0,0,1-2.192,2.192A2.208,2.208,0,0,1,0,19.727V9.5A9.1,9.1,0,0,1,9.5,0h8.768a9.1,9.1,0,0,1,9.5,9.5V19.727A2.208,2.208,0,0,1,25.572,21.919Z" transform="translate(21.188 3.653)" fill="#262626"/>
    <path id="Vector-3" data-name="Vector" d="M13.228,32.966a2.192,2.192,0,1,1,0-4.384H47.6a1.475,1.475,0,0,0,1.461-1.637L47.071,10.316C46.369,4.647,45.376,0,35.439,0H14.4C4.46,0,3.467,4.647,2.795,10.316L.164,32.235C-.683,39.425,1.538,45.3,11.8,45.3H38.04c9.235,0,11.953-4.764,11.807-10.959a1.429,1.429,0,0,0-1.461-1.374Z" transform="translate(10.152 18.996)" fill="#262626"/>
  </g>
</svg>
