<svg xmlns="http://www.w3.org/2000/svg" width="70.14" height="70.14" viewBox="0 0 70.14 70.14">
  <g id="vuesax_bold_wallet" data-name="vuesax/bold/wallet" transform="translate(0 0)">
    <g id="wallet" transform="translate(0 0)">
      <path id="Vector" d="M17.506.6l-7.043,16.4H3.419A16.547,16.547,0,0,0,0,17.313L2.923,10.3l.117-.263.175-.468a4.635,4.635,0,0,1,.234-.526C6.839,1.181,10.638-1.274,17.506.6Z" transform="translate(17.389 5.863)" fill="#262626"/>
      <path id="Vector-2" data-name="Vector" d="M23.7,16.278l-.058-.029a19.543,19.543,0,0,0-5.348-.76H0L6.576.2,6.663,0c.409.146.848.351,1.286.5l6.459,2.718c3.595,1.49,6.108,3.039,7.657,4.91.263.351.5.672.731,1.052a4.447,4.447,0,0,1,.585,1.257,3.911,3.911,0,0,1,.263.76A10.242,10.242,0,0,1,23.7,16.278Z" transform="translate(31.037 7.365)" fill="#262626"/>
      <path id="Vector-3" data-name="Vector" d="M0,3.887H.731A1.7,1.7,0,0,0,2.338,2.133c0-1.227-.351-1.4-1.111-1.7L0,0Z" transform="translate(36.59 47.725)" fill="#262626"/>
      <path id="Vector-4" data-name="Vector" d="M46.906.585A14.78,14.78,0,0,0,42.786,0H14.262A13.96,13.96,0,0,0,8.651,1.14,14.3,14.3,0,0,0,0,14.262v5.7a16.508,16.508,0,0,0,.146,2.075q.964,13.94,14.9,14.876a15.763,15.763,0,0,0,2.075.146h22.8c10.813,0,16.512-5.144,17.068-15.372.029-.555.058-1.14.058-1.724v-5.7A14.32,14.32,0,0,0,46.906.585ZM32.265,18.061a4.317,4.317,0,0,1,3.156,4.559,4.71,4.71,0,0,1-4.647,4.793h-.731v.643a1.52,1.52,0,1,1-3.039,0v-.643h-.263a5.216,5.216,0,0,1-5.114-5.29,1.52,1.52,0,0,1,3.039,0,2.182,2.182,0,0,0,2.075,2.25H27V19.435l-2.221-.789a4.317,4.317,0,0,1-3.156-4.559,4.71,4.71,0,0,1,4.647-4.793H27V8.651a1.52,1.52,0,0,1,3.039,0v.643h.263a5.216,5.216,0,0,1,5.114,5.29,1.52,1.52,0,0,1-3.039,0,2.182,2.182,0,0,0-2.075-2.25h-.263v4.939Z" transform="translate(6.546 27.238)" fill="#262626"/>
      <path id="Vector-5" data-name="Vector" d="M0,1.754c0,1.227.351,1.4,1.111,1.7l1.227.438V0H1.607A1.676,1.676,0,0,0,0,1.754Z" transform="translate(31.213 39.571)" fill="#262626"/>
      <path id="Vector-6" data-name="Vector" d="M0,0H70.14V70.14H0Z" fill="none" opacity="0"/>
    </g>
  </g>
</svg>
