<svg id="ranking" xmlns="http://www.w3.org/2000/svg" width="70.14" height="70.14" viewBox="0 0 70.14 70.14">
  <path id="Vector" d="M0,0H70.14V70.14H0Z" fill="none" opacity="0"/>
  <path id="Vector-2" data-name="Vector" d="M13.648,0h-7.8A5.862,5.862,0,0,0,0,5.845V20.458A2.931,2.931,0,0,0,2.923,23.38H13.648a2.931,2.931,0,0,0,2.923-2.923V2.923A2.931,2.931,0,0,0,13.648,0Z" transform="translate(5.845 40.915)" fill="#262626"/>
  <path id="Vector-3" data-name="Vector" d="M13.648,0h-7.8A5.862,5.862,0,0,0,0,5.845v26.3A2.931,2.931,0,0,0,2.923,35.07H16.571a2.931,2.931,0,0,0,2.923-2.923V5.845A5.843,5.843,0,0,0,13.648,0Z" transform="translate(25.309 29.225)" fill="#262626"/>
  <path id="Vector-4" data-name="Vector" d="M10.726,0h-7.8A2.931,2.931,0,0,0,0,2.923V11.69a2.931,2.931,0,0,0,2.923,2.923H13.648a2.931,2.931,0,0,0,2.923-2.923V5.845A5.862,5.862,0,0,0,10.726,0Z" transform="translate(47.725 49.683)" fill="#262626"/>
  <path id="Vector-5" data-name="Vector" d="M18.659,10.4a2.951,2.951,0,0,0,.964-2.923,2.882,2.882,0,0,0-2.484-1.812l-2.806-.468a.788.788,0,0,1-.438-.321l-1.549-3.1c-1.169-2.367-3.829-2.367-5,0L5.8,4.873a.645.645,0,0,1-.409.321l-2.806.468A2.92,2.92,0,0,0,.1,7.474,2.951,2.951,0,0,0,1.065,10.4l2.163,2.192a.79.79,0,0,1,.175.555l-.614,2.689c-.468,2.017.292,2.923.789,3.273s1.578.818,3.361-.234l2.63-1.549a.749.749,0,0,1,.614,0l2.6,1.549a3.869,3.869,0,0,0,2.017.643,2.326,2.326,0,0,0,1.315-.409c.5-.351,1.257-1.257.789-3.273l-.614-2.689a.749.749,0,0,1,.175-.555Z" transform="translate(25.208 3.777)" fill="#262626"/>
</svg>
