<svg xmlns="http://www.w3.org/2000/svg" width="24" height="24" viewBox="0 0 24 24">
  <g id="moving-company" transform="translate(-300 -700)">
    <g id="signpost">
      <path id="Vector" d="M0,0H24V24H0Z" transform="translate(300 700)" fill="none" opacity="0"/>
      <path id="Vector-2" data-name="Vector" d="M13.313,12.13l-2.18-1.75a1.81,1.81,0,0,0-1.1-.38H7.723V7h4.47a1.746,1.746,0,0,0,1.75-1.75V1.75A1.746,1.746,0,0,0,12.192,0H3.933a1.8,1.8,0,0,0-1.09.38L.653,2.13a1.764,1.764,0,0,0,0,2.74l2.19,1.75A1.8,1.8,0,0,0,3.933,7h2.29v3H1.773a1.746,1.746,0,0,0-1.75,1.75v3.5A1.746,1.746,0,0,0,1.773,17h4.45v2.25H3.973a.75.75,0,0,0,0,1.5h6a.75.75,0,0,0,0-1.5H7.723V17h2.31a1.81,1.81,0,0,0,1.1-.38l2.18-1.75A1.752,1.752,0,0,0,13.313,12.13Z" transform="translate(305.027 702)" fill="#292d32"/>
    </g>
  </g>
</svg>
