<svg xmlns="http://www.w3.org/2000/svg" width="70.14" height="70.14" viewBox="0 0 70.14 70.14">
  <g id="vuesax_bold_map" data-name="vuesax/bold/map" transform="translate(0 0)">
    <g id="map" transform="translate(0 0)">
      <path id="Vector" d="M0,0H70.14V70.14H0Z" fill="none" opacity="0"/>
      <path id="Vector-2" data-name="Vector" d="M2.923,0A2.923,2.923,0,1,0,5.845,2.923,2.912,2.912,0,0,0,2.923,0Z" transform="translate(23.819 21.89)" fill="#262626"/>
      <path id="Vector-3" data-name="Vector" d="M56.872,8.884C54.417,3.186,49.011,0,41.471,0H16.98A16.975,16.975,0,0,0,0,16.98V41.471c0,7.54,3.186,12.947,8.884,15.4a1.482,1.482,0,0,0,1.607-.321L56.551,10.492A1.4,1.4,0,0,0,56.872,8.884ZM24.929,29.927a5.858,5.858,0,0,1-4.121,1.637,5.988,5.988,0,0,1-4.121-1.637c-2.981-2.806-6.254-7.277-5-12.6a9.1,9.1,0,0,1,9.118-6.985,9.1,9.1,0,0,1,9.118,7.014C31.154,22.65,27.881,27.121,24.929,29.927Z" transform="translate(5.845 5.845)" fill="#262626"/>
      <path id="Vector-4" data-name="Vector" d="M34.979,15.372a1.333,1.333,0,0,1-.234,2.133,18.989,18.989,0,0,1-9.352,2.163H.9A.908.908,0,0,1,.289,18.09L17.941.438a1.447,1.447,0,0,1,2.075,0Z" transform="translate(21.922 44.627)" fill="#262626"/>
      <path id="Vector-5" data-name="Vector" d="M19.7.9V25.394a18.91,18.91,0,0,1-2.163,9.352,1.349,1.349,0,0,1-2.133.234L.438,20.016a1.447,1.447,0,0,1,0-2.075L18.09.289A.926.926,0,0,1,19.7.9Z" transform="translate(44.598 21.922)" fill="#262626"/>
    </g>
  </g>
</svg>
