<svg xmlns="http://www.w3.org/2000/svg" width="24" height="24" viewBox="0 0 24 24">
  <g id="vuesax_bold_gallery-edit" data-name="vuesax/bold/gallery-edit" transform="translate(-172 -316)">
    <g id="gallery-edit">
      <path id="Vector" d="M4.97,0H2.03A1.866,1.866,0,0,0,0,2.03V4.97A1.866,1.866,0,0,0,2.03,7H4.97A1.866,1.866,0,0,0,7,4.97V2.03A1.866,1.866,0,0,0,4.97,0ZM3.01,5.57a.263.263,0,0,1-.15.07l-1.04.15a.34.34,0,0,1-.1.01.482.482,0,0,1-.37-.15.528.528,0,0,1-.14-.47l.15-1.04a.348.348,0,0,1,.07-.15l1.7-1.7c.03.07.06.15.09.23s.08.15.12.22a.645.645,0,0,0,.11.16,1.176,1.176,0,0,0,.11.15.274.274,0,0,0,.04.05,1.848,1.848,0,0,0,.28.28c.02.02.04.04.05.04.05.04.11.09.15.12a1.629,1.629,0,0,0,.17.11c.07.04.15.08.23.12a1.357,1.357,0,0,0,.23.09ZM5.4,3.18l-.32.32A.091.091,0,0,1,5,3.54H4.97a2.215,2.215,0,0,1-1.5-1.5.113.113,0,0,1,.03-.11l.33-.33a.978.978,0,0,1,1.58,0,1.138,1.138,0,0,1,.4.79A1.2,1.2,0,0,1,5.4,3.18Z" transform="translate(188 317)" fill="#262626"/>
      <path id="Vector-2" data-name="Vector" d="M4.76,2.38A2.38,2.38,0,1,1,2.38,0,2.38,2.38,0,0,1,4.76,2.38Z" transform="translate(178.62 321.62)" fill="#262626"/>
      <path id="Vector-3" data-name="Vector" d="M18.97,6H18.5v4.61l-.13-.11a2.229,2.229,0,0,0-2.82,0l-4.16,3.57a2.229,2.229,0,0,1-2.82,0l-.34-.28a2.221,2.221,0,0,0-2.64-.14L1.85,16.16a5.333,5.333,0,0,1-.35-1.97V5.81C1.5,2.99,2.99,1.5,5.81,1.5H14V1.03A2.09,2.09,0,0,1,14.23,0H5.81C2.17,0,0,2.17,0,5.81v8.38a6.723,6.723,0,0,0,.56,2.84C1.42,18.93,3.26,20,5.81,20h8.38C17.83,20,20,17.83,20,14.19V5.77A2.09,2.09,0,0,1,18.97,6Z" transform="translate(174 318)" fill="#262626"/>
      <path id="Vector-4" data-name="Vector" d="M0,0H24V24H0Z" transform="translate(172 316)" fill="none" opacity="0"/>
    </g>
  </g>
</svg>
