<svg id="vuesax_linear_call" data-name="vuesax/linear/call" xmlns="http://www.w3.org/2000/svg" width="26.092" height="26.092" viewBox="0 0 26.092 26.092">
  <g id="call" transform="translate(0)">
    <g id="call-2" data-name="call" transform="translate(2.269 2.269)">
      <path id="Vector" d="M21.52,17.6a2.743,2.743,0,0,1-.269,1.175,4.447,4.447,0,0,1-.733,1.1,4.858,4.858,0,0,1-1.767,1.272,5.411,5.411,0,0,1-2.1.41,8.98,8.98,0,0,1-3.513-.787,18.927,18.927,0,0,1-3.707-2.134,30.982,30.982,0,0,1-3.535-3.018,30.621,30.621,0,0,1-3.007-3.524A19.213,19.213,0,0,1,.776,8.417,9.078,9.078,0,0,1,0,4.893a5.575,5.575,0,0,1,.388-2.08,4.96,4.96,0,0,1,1.239-1.8A3.157,3.157,0,0,1,3.869,0a2.025,2.025,0,0,1,.873.194,1.757,1.757,0,0,1,.722.6l2.5,3.524a3.688,3.688,0,0,1,.431.754,1.7,1.7,0,0,1,.151.657,1.463,1.463,0,0,1-.226.765,3.666,3.666,0,0,1-.6.765L6.9,8.115a.577.577,0,0,0-.172.431.979.979,0,0,0,.032.248c.032.086.065.151.086.216a8.943,8.943,0,0,0,1,1.379c.485.56,1,1.132,1.563,1.7.582.571,1.142,1.1,1.713,1.584a8.27,8.27,0,0,0,1.39.991c.054.022.119.054.194.086a.744.744,0,0,0,.269.043.593.593,0,0,0,.442-.183l.819-.808a3.306,3.306,0,0,1,.776-.6,1.435,1.435,0,0,1,.765-.226,1.72,1.72,0,0,1,.657.14,4.168,4.168,0,0,1,.754.42l3.567,2.533a1.635,1.635,0,0,1,.593.69A2.211,2.211,0,0,1,21.52,17.6Z" fill="#262626"/>
    </g>
    <path id="Vector-2" data-name="Vector" d="M0,0H26.092V26.092H0Z" fill="#262626" opacity="0"/>
  </g>
</svg>
