<svg xmlns="http://www.w3.org/2000/svg" width="32" height="32" viewBox="0 0 32 32">
  <g id="vuesax_linear_call" data-name="vuesax/linear/call" transform="translate(-108 -188)">
    <g id="call" transform="translate(108 188)">
      <g id="call-2" data-name="call" transform="translate(2 2)">
        <path id="Vector" d="M27.97,22.862a3.562,3.562,0,0,1-.35,1.526,5.776,5.776,0,0,1-.952,1.428,6.314,6.314,0,0,1-2.3,1.652A7.036,7.036,0,0,1,21.639,28a11.676,11.676,0,0,1-4.566-1.022,24.6,24.6,0,0,1-4.818-2.772,40.263,40.263,0,0,1-4.594-3.92,39.784,39.784,0,0,1-3.908-4.578,24.956,24.956,0,0,1-2.745-4.774A11.787,11.787,0,0,1,0,6.356a7.24,7.24,0,0,1,.5-2.7A6.444,6.444,0,0,1,2.115,1.316,4.1,4.1,0,0,1,5.028,0,2.633,2.633,0,0,1,6.163.252a2.283,2.283,0,0,1,.938.784L10.35,5.614a4.791,4.791,0,0,1,.56.98,2.212,2.212,0,0,1,.2.854,1.9,1.9,0,0,1-.294.994,4.762,4.762,0,0,1-.784.994L8.964,10.542a.749.749,0,0,0-.224.56,1.271,1.271,0,0,0,.042.322c.042.112.084.2.112.28A11.618,11.618,0,0,0,10.2,13.5c.63.728,1.3,1.47,2.031,2.212.756.742,1.485,1.428,2.227,2.058a10.749,10.749,0,0,0,1.807,1.288c.07.028.154.07.252.112a.967.967,0,0,0,.35.056.771.771,0,0,0,.574-.238l1.064-1.05a4.3,4.3,0,0,1,1.008-.784,1.866,1.866,0,0,1,.994-.294,2.236,2.236,0,0,1,.854.182,5.418,5.418,0,0,1,.98.546l4.636,3.29a2.124,2.124,0,0,1,.77.9A2.871,2.871,0,0,1,27.97,22.862Z" fill="#262626"/>
      </g>
      <path id="Vector-2" data-name="Vector" d="M0,0H32V32H0Z" fill="none" opacity="0"/>
    </g>
  </g>
</svg>
