<svg id="call" xmlns="http://www.w3.org/2000/svg" width="32.531" height="32.531" viewBox="0 0 32.531 32.531">
  <path id="Vector" d="M12.267,17.553,9.759,20.061a1.362,1.362,0,0,1-1.911.014c-.149-.149-.3-.285-.447-.434a38.513,38.513,0,0,1-3.782-4.432A24.165,24.165,0,0,1,.962,10.586,11.637,11.637,0,0,1,0,6.154,7.012,7.012,0,0,1,.488,3.538,6.239,6.239,0,0,1,2.047,1.274,3.971,3.971,0,0,1,4.866,0a2.547,2.547,0,0,1,1.1.244A2.21,2.21,0,0,1,6.872,1l3.145,4.432a4.639,4.639,0,0,1,.542.949,2.142,2.142,0,0,1,.19.827,1.84,1.84,0,0,1-.285.962,4.61,4.61,0,0,1-.759.962l-1.03,1.071a.725.725,0,0,0-.217.542,1.231,1.231,0,0,0,.041.312c.041.108.081.19.108.271a11.248,11.248,0,0,0,1.261,1.735c.61.7,1.261,1.423,1.965,2.142.136.136.285.271.42.407A1.358,1.358,0,0,1,12.267,17.553Z" transform="translate(2.711 2.711)" fill="#fff"/>
  <path id="Vector-2" data-name="Vector" d="M16.767,5.815a3.442,3.442,0,0,1-.2,1.152,3.31,3.31,0,0,1-.136.325,5.593,5.593,0,0,1-.922,1.383,6.111,6.111,0,0,1-2.223,1.6c-.014,0-.027.014-.041.014a6.847,6.847,0,0,1-2.6.5A11.3,11.3,0,0,1,6.222,9.8,23.808,23.808,0,0,1,1.559,7.116C1.03,6.723.5,6.33,0,5.91L4.432,1.477a7.615,7.615,0,0,0,1,.651c.068.027.149.068.244.108a.936.936,0,0,0,.339.054.746.746,0,0,0,.556-.23L7.6,1.044A4.159,4.159,0,0,1,8.58.285,1.8,1.8,0,0,1,9.542,0a2.163,2.163,0,0,1,.827.176A5.242,5.242,0,0,1,11.318.7L15.8,3.89a2.056,2.056,0,0,1,.746.867A2.781,2.781,0,0,1,16.767,5.815Z" transform="translate(13.012 19.031)" fill="#fff"/>
  <path id="Vector-3" data-name="Vector" d="M0,0H32.531V32.531H0Z" transform="translate(32.531 32.531) rotate(180)" fill="none" opacity="0"/>
</svg>
