<svg id="call" xmlns="http://www.w3.org/2000/svg" width="22.054" height="22.054" viewBox="0 0 22.054 22.054">
  <path id="Vector" d="M8.316,11.9l-1.7,1.7a.924.924,0,0,1-1.3.009c-.1-.1-.2-.193-.3-.294a26.109,26.109,0,0,1-2.564-3,16.382,16.382,0,0,1-1.8-3.133,7.889,7.889,0,0,1-.652-3A4.754,4.754,0,0,1,.331,2.4,4.229,4.229,0,0,1,1.388.864,2.692,2.692,0,0,1,3.3,0a1.727,1.727,0,0,1,.744.165A1.5,1.5,0,0,1,4.659.68l2.132,3a3.145,3.145,0,0,1,.368.643,1.452,1.452,0,0,1,.129.561,1.247,1.247,0,0,1-.193.652,3.125,3.125,0,0,1-.515.652l-.7.726a.492.492,0,0,0-.147.368.834.834,0,0,0,.028.211c.028.074.055.129.074.184A7.625,7.625,0,0,0,6.69,8.858c.414.478.855.965,1.332,1.452.092.092.193.184.285.276A.921.921,0,0,1,8.316,11.9Z" transform="translate(1.838 1.838)" fill="#262626"/>
  <path id="Vector-2" data-name="Vector" d="M11.367,3.942a2.334,2.334,0,0,1-.138.781,2.244,2.244,0,0,1-.092.221,3.791,3.791,0,0,1-.625.937A4.143,4.143,0,0,1,9.005,6.965c-.009,0-.018.009-.028.009a4.642,4.642,0,0,1-1.764.34,7.658,7.658,0,0,1-3-.671A16.14,16.14,0,0,1,1.057,4.824C.7,4.558.34,4.291,0,4.006L3,1a5.163,5.163,0,0,0,.68.441c.046.018.1.046.165.074a.634.634,0,0,0,.23.037A.506.506,0,0,0,4.457,1.4l.7-.689A2.819,2.819,0,0,1,5.817.193,1.224,1.224,0,0,1,6.469,0,1.466,1.466,0,0,1,7.03.119a3.554,3.554,0,0,1,.643.358l3.042,2.159a1.394,1.394,0,0,1,.505.588A1.885,1.885,0,0,1,11.367,3.942Z" transform="translate(8.821 12.901)" fill="#262626"/>
  <path id="Vector-3" data-name="Vector" d="M0,0H22.054V22.054H0Z" transform="translate(22.054 22.054) rotate(180)" fill="none" opacity="0"/>
</svg>
