<svg xmlns="http://www.w3.org/2000/svg" width="32" height="32" viewBox="0 0 32 32">
  <g id="vuesax_bold_instagram" data-name="vuesax/bold/instagram" transform="translate(-300 -444)">
    <g id="instagram" transform="translate(300 444)">
      <path id="Vector" d="M19.869,0H8.135C3.038,0,0,3.038,0,8.134V19.852C0,24.962,3.038,28,8.135,28h11.72c5.1,0,8.135-3.038,8.135-8.134V8.134C28,3.038,24.966,0,19.869,0ZM14,19.432A5.432,5.432,0,1,1,19.435,14,5.438,5.438,0,0,1,14,19.432Zm8.289-12.6A1.617,1.617,0,0,1,22,7.294a1.617,1.617,0,0,1-.462.294,1.386,1.386,0,0,1-1.526-.294,1.617,1.617,0,0,1-.294-.462,1.319,1.319,0,0,1,0-1.064,1.445,1.445,0,0,1,.294-.462,1.4,1.4,0,0,1,1.26-.378.845.845,0,0,1,.266.084,1.06,1.06,0,0,1,.252.126,2.206,2.206,0,0,1,.21.168,1.445,1.445,0,0,1,.294.462,1.319,1.319,0,0,1,0,1.064Z" transform="translate(2 2)" fill="#292d32"/>
      <path id="Vector-2" data-name="Vector" d="M0,0H32V32H0Z" transform="translate(32 32) rotate(180)" fill="none" opacity="0"/>
    </g>
  </g>
</svg>
