<svg xmlns="http://www.w3.org/2000/svg" width="24" height="24" viewBox="0 0 24 24">
  <g id="Rental_Escrow" data-name="Rental Escrow" transform="translate(-236 -188)">
    <g id="house">
      <path id="Vector" d="M0,0H24V24H0Z" transform="translate(236 188)" fill="none" opacity="0"/>
      <path id="Vector-2" data-name="Vector" d="M20.75,18.718h-1V7.447a1.99,1.99,0,0,0-.77-1.58l-1.23-.96-.02-2.45a.994.994,0,0,0-1-.99H13.32L11.98.428a1.983,1.983,0,0,0-2.46,0l-7,5.44a1.985,1.985,0,0,0-.77,1.57L1.7,18.718H.75a.75.75,0,0,0,0,1.5h20a.75.75,0,0,0,0-1.5Zm-15.5-8.5v-1.5a1,1,0,0,1,1-1h2a1,1,0,0,1,1,1v1.5a1,1,0,0,1-1,1h-2A1,1,0,0,1,5.25,10.217Zm8,8.5h-5v-2.75a1.5,1.5,0,0,1,1.5-1.5h2a1.5,1.5,0,0,1,1.5,1.5Zm3-8.5a1,1,0,0,1-1,1h-2a1,1,0,0,1-1-1v-1.5a1,1,0,0,1,1-1h2a1,1,0,0,1,1,1Z" transform="translate(237.25 190.533)" fill="#292d32"/>
    </g>
  </g>
</svg>
