<svg id="user-tag" xmlns="http://www.w3.org/2000/svg" width="70.14" height="70.14" viewBox="0 0 70.14 70.14">
  <path id="Vector" d="M0,0H70.14V70.14H0Z" fill="none" opacity="0"/>
  <path id="Vector-2" data-name="Vector" d="M43.838,0H8.768A8.719,8.719,0,0,0,0,8.68V40.565a8.719,8.719,0,0,0,8.768,8.68h2.221a8.731,8.731,0,0,1,6.2,2.543l5,4.939a5.91,5.91,0,0,0,8.271,0l5-4.939a8.782,8.782,0,0,1,6.2-2.543h2.192a8.719,8.719,0,0,0,8.768-8.68V8.68A8.719,8.719,0,0,0,43.838,0ZM26.3,10.959a6.809,6.809,0,1,1-6.809,6.809A6.8,6.8,0,0,1,26.3,10.959Zm7.832,27.209H18.47a2.935,2.935,0,0,1-2.426-4.588A12.3,12.3,0,0,1,26.3,28.641,12.3,12.3,0,0,1,36.561,33.58,2.943,2.943,0,0,1,34.135,38.168Z" transform="translate(8.768 5.845)" fill="#262626"/>
</svg>
