<svg xmlns="http://www.w3.org/2000/svg" width="24" height="24" viewBox="0 0 24 24">
  <g id="staging-company" transform="translate(-492 -188)">
    <path id="Vector" d="M0,0H24V24H0Z" transform="translate(492 188)" fill="none" opacity="0"/>
    <path id="Vector-2" data-name="Vector" d="M8.6,2.15a.354.354,0,0,1-.35.35H7.12A3.926,3.926,0,0,0,3.2,6.42v9.23a.354.354,0,0,1-.35.35h-.7A2.147,2.147,0,0,1,0,13.85V2.15A2.147,2.147,0,0,1,2.15,0h4.3A2.147,2.147,0,0,1,8.6,2.15Z" transform="translate(494 190)" fill="#292d32"/>
    <path id="Vector-3" data-name="Vector" d="M8.6,2.15v11.7A2.147,2.147,0,0,1,6.45,16H5.82a.354.354,0,0,1-.35-.35V6.42A3.926,3.926,0,0,0,1.55,2.5H.35A.354.354,0,0,1,0,2.15,2.147,2.147,0,0,1,2.15,0h4.3A2.147,2.147,0,0,1,8.6,2.15Z" transform="translate(505.4 190)" fill="#292d32"/>
    <path id="Vector-4" data-name="Vector" d="M8.25,0H2.42A2.416,2.416,0,0,0,0,2.42V13.58A2.416,2.416,0,0,0,2.42,16H4.05a.5.5,0,0,0,.5-.5V13a.75.75,0,0,1,1.5,0v2.5a.5.5,0,0,0,.5.5H8.26a2.411,2.411,0,0,0,2.41-2.41V2.42A2.416,2.416,0,0,0,8.25,0ZM7.3,8.75h-4a.75.75,0,0,1,0-1.5h4a.75.75,0,0,1,0,1.5Zm0-3h-4a.75.75,0,0,1,0-1.5h4a.75.75,0,0,1,0,1.5Z" transform="translate(498.7 194)" fill="#292d32"/>
  </g>
</svg>
