<svg xmlns="http://www.w3.org/2000/svg" width="70.14" height="70.14" viewBox="0 0 70.14 70.14">
  <g id="vuesax_bold_setting-2" data-name="vuesax/bold/setting-2" transform="translate(0)">
    <g id="setting-2">
      <path id="Vector" d="M52.9,19.461c-5.29,0-7.452-3.741-4.822-8.329A5.543,5.543,0,0,0,46.03,3.562L40.974.669A4.878,4.878,0,0,0,34.31,2.422l-.321.555c-2.63,4.588-6.956,4.588-9.615,0l-.321-.555a4.8,4.8,0,0,0-6.6-1.754L12.391,3.562a5.577,5.577,0,0,0-2.046,7.6c2.659,4.559.5,8.3-4.793,8.3A5.569,5.569,0,0,0,0,25.014v5.144A5.569,5.569,0,0,0,5.553,35.71c5.29,0,7.452,3.741,4.793,8.329a5.543,5.543,0,0,0,2.046,7.569L17.447,54.5a4.878,4.878,0,0,0,6.663-1.754l.321-.555c2.63-4.588,6.956-4.588,9.615,0l.321.555A4.878,4.878,0,0,0,41.032,54.5l5.056-2.893a5.55,5.55,0,0,0,2.046-7.569c-2.659-4.588-.5-8.329,4.793-8.329a5.569,5.569,0,0,0,5.553-5.553V25.014A5.613,5.613,0,0,0,52.9,19.461ZM29.225,37.084a9.5,9.5,0,1,1,9.5-9.5A9.517,9.517,0,0,1,29.225,37.084Z" transform="translate(5.845 7.485)" fill="#262626"/>
      <path id="Vector-2" data-name="Vector" d="M0,0H70.14V70.14H0Z" transform="translate(70.14 70.14) rotate(180)" fill="none" opacity="0"/>
    </g>
  </g>
</svg>
