<svg id="vuesax_bold_teacher" data-name="vuesax/bold/teacher" xmlns="http://www.w3.org/2000/svg" width="70.14" height="70.14" viewBox="0 0 70.14 70.14">
  <path id="Vector" d="M32.761.5a2.921,2.921,0,0,1,4.53,2.455v3.77a10.016,10.016,0,0,1-6.371,8.855l-9.323,3.1a10.669,10.669,0,0,1-5.9,0l-9.323-3.1A9.97,9.97,0,0,1,0,6.726v-3.8A2.921,2.921,0,0,1,4.5.472l6.02,3.916A14.75,14.75,0,0,0,18.675,6.7a14.75,14.75,0,0,0,8.154-2.309Z" transform="translate(16.425 45.207)" fill="#262626"/>
  <path id="Vector-2" data-name="Vector" d="M50.845,13.042,33.339,1.556a11.428,11.428,0,0,0-11.515,0L4.23,13.042a9.312,9.312,0,0,0,0,15.606l4.676,3.039L21.824,40.1a11.428,11.428,0,0,0,11.515,0l12.83-8.417,4-2.63V38a2.192,2.192,0,1,0,4.384,0V23.621A9.28,9.28,0,0,0,50.845,13.042Z" transform="translate(7.547 5.838)" fill="#262626"/>
  <path id="Vector-3" data-name="Vector" d="M0,0H70.14V70.14H0Z" transform="translate(70.14 70.14) rotate(180)" fill="none" opacity="0"/>
</svg>
