<svg xmlns="http://www.w3.org/2000/svg" width="19.731" height="16.443" viewBox="0 0 19.731 16.443">
  <path id="Path_26" data-name="Path 26" d="M19.731,3.948a7.893,7.893,0,0,1-2.327.658,4.144,4.144,0,0,0,1.784-2.3,7.778,7.778,0,0,1-2.573,1A4,4,0,0,0,13.656,2,4.1,4.1,0,0,0,9.718,7.1,11.4,11.4,0,0,1,1.373,2.756,4.209,4.209,0,0,0,2.631,8.306,3.963,3.963,0,0,1,.8,7.78v.058a4.139,4.139,0,0,0,3.247,4.07,3.979,3.979,0,0,1-1.825.066A4.071,4.071,0,0,0,6,14.858a7.991,7.991,0,0,1-6,1.726,11.247,11.247,0,0,0,6.207,1.858c7.449,0,11.51-6.33,11.51-11.814V6.094A8.347,8.347,0,0,0,19.731,3.948Z" transform="translate(0 -2)" fill="#666"/>
</svg>
