<svg xmlns="http://www.w3.org/2000/svg" width="26.349" height="26.349" viewBox="0 0 26.349 26.349">
  <g id="vuesax_linear_gallery" data-name="vuesax/linear/gallery" transform="translate(-364 -252)">
    <g id="gallery" transform="translate(364 252)">
      <path id="Vector" d="M7.685,21.957h6.587c5.489,0,7.685-2.2,7.685-7.685V7.685C21.957,2.2,19.761,0,14.272,0H7.685C2.2,0,0,2.2,0,7.685v6.587C0,19.761,2.2,21.957,7.685,21.957Z" transform="translate(2.196 2.196)" fill="none" stroke="#fff" stroke-linecap="round" stroke-linejoin="round" stroke-width="1.5"/>
      <path id="Vector-2" data-name="Vector" d="M4.391,2.2A2.2,2.2,0,1,1,2.2,0,2.2,2.2,0,0,1,4.391,2.2Z" transform="translate(7.685 6.587)" fill="none" stroke="#fff" stroke-linecap="round" stroke-linejoin="round" stroke-width="1.5"/>
      <path id="Vector-3" data-name="Vector" d="M0,7.633,5.412,4a2.474,2.474,0,0,1,2.9.154l.362.318a2.448,2.448,0,0,0,3.1,0L16.336.552a2.448,2.448,0,0,1,3.1,0l1.79,1.537" transform="translate(2.931 13.172)" fill="none" stroke="#fff" stroke-linecap="round" stroke-linejoin="round" stroke-width="1.5"/>
      <path id="Vector-4" data-name="Vector" d="M0,0H26.349V26.349H0Z" fill="none" opacity="0"/>
    </g>
  </g>
</svg>
