<svg width="23" height="23" viewBox="0 0 23 23" fill="none" xmlns="http://www.w3.org/2000/svg">
<path d="M5.79395 2.79395H16.7939V14.7939H5.79395V2.79395Z" fill="white"/>
<path d="M15.653 0H6.409C2.394 0 0 2.394 0 6.409V15.642C0 19.668 2.394 22.062 6.409 22.062H15.642C19.657 22.062 22.051 19.668 22.051 15.653V6.409C22.062 2.394 19.669 0 15.653 0ZM7.137 9.906C7.29271 9.75229 7.5027 9.6661 7.7215 9.6661C7.9403 9.6661 8.15029 9.75229 8.306 9.906L10.206 11.806V4.975C10.206 4.75553 10.2932 4.54506 10.4484 4.38987C10.6036 4.23468 10.814 4.1475 11.0335 4.1475C11.253 4.1475 11.4634 4.23468 11.6186 4.38987C11.7738 4.54506 11.861 4.75553 11.861 4.975V11.8L13.761 9.9C13.8369 9.81932 13.9282 9.75469 14.0295 9.70996C14.1308 9.66523 14.24 9.6413 14.3508 9.63959C14.4615 9.63789 14.5715 9.65844 14.6741 9.70003C14.7767 9.74162 14.87 9.80341 14.9483 9.88172C15.0266 9.96003 15.0884 10.0533 15.13 10.1559C15.1716 10.2585 15.1921 10.3685 15.1904 10.4792C15.1887 10.59 15.1648 10.6992 15.12 10.8005C15.0753 10.9018 15.0107 10.9931 14.93 11.069L11.621 14.378C11.5445 14.4531 11.4546 14.5131 11.356 14.555C11.2551 14.599 11.1461 14.6215 11.036 14.621C10.926 14.6204 10.8172 14.598 10.716 14.555C10.6174 14.5131 10.5275 14.4531 10.451 14.378L7.137 11.075C6.98329 10.9193 6.8971 10.7093 6.8971 10.4905C6.8971 10.2717 6.98329 10.0617 7.137 9.906ZM17.915 16.79C15.6948 17.5273 13.3704 17.9021 11.031 17.9C8.69195 17.902 6.36784 17.5272 4.148 16.79C3.94104 16.7187 3.77055 16.5687 3.67356 16.3725C3.57657 16.1763 3.56092 15.9497 3.63 15.742C3.66381 15.6385 3.71794 15.5428 3.78922 15.4605C3.8605 15.3782 3.9475 15.3109 4.04511 15.2627C4.14272 15.2144 4.24897 15.1862 4.35765 15.1795C4.46633 15.1729 4.57524 15.188 4.678 15.224C8.80734 16.5919 13.2677 16.5919 17.397 15.224C17.6047 15.1549 17.8313 15.1706 18.0275 15.2676C18.2237 15.3645 18.3737 15.535 18.445 15.742C18.5108 15.9513 18.4922 16.178 18.3932 16.3738C18.2942 16.5696 18.1226 16.719 17.915 16.79Z" fill="#262626"/>
</svg>
