<svg xmlns="http://www.w3.org/2000/svg" width="32.531" height="32.531" viewBox="0 0 32.531 32.531">
  <g id="vuesax_bold_global" data-name="vuesax/bold/global" transform="translate(0)">
    <path id="Vector" d="M6.222,6.194c-.041,0-.095.027-.136.027A13.562,13.562,0,0,1,0,.136C0,.095.027.041.027,0A43.229,43.229,0,0,0,5.083,1.139,45.473,45.473,0,0,0,6.222,6.194Z" transform="translate(4.148 22.148)" fill="#fff"/>
    <path id="Vector-2" data-name="Vector" d="M6.3.149A13.681,13.681,0,0,1,0,6.343a41.426,41.426,0,0,0,1.233-5.2A42.4,42.4,0,0,0,6.276,0C6.262.054,6.3.108,6.3.149Z" transform="translate(22.08 22.148)" fill="#fff"/>
    <path id="Vector-3" data-name="Vector" d="M6.411,6.411A42.891,42.891,0,0,0,1.233,5.178,37.836,37.836,0,0,0,0,0,13.625,13.625,0,0,1,6.411,6.411Z" transform="translate(22.08 4.039)" fill="#fff"/>
    <path id="Vector-4" data-name="Vector" d="M6.33.041A42.355,42.355,0,0,0,5.2,5.083,39.131,39.131,0,0,0,0,6.3,13.681,13.681,0,0,1,6.194,0C6.235,0,6.289.041,6.33.041Z" transform="translate(4.039 4.148)" fill="#fff"/>
    <path id="Vector-5" data-name="Vector" d="M9.461,6.222A42.464,42.464,0,0,0,0,6.222,38.459,38.459,0,0,1,1.383.718,2.216,2.216,0,0,0,1.41.42,14.1,14.1,0,0,1,4.731,0,13.991,13.991,0,0,1,8.038.42a2.251,2.251,0,0,0,.041.3A38.917,38.917,0,0,1,9.461,6.222Z" transform="translate(11.535 2.711)" fill="#fff"/>
    <path id="Vector-6" data-name="Vector" d="M6.222,9.461a38.011,38.011,0,0,1-5.5-1.383,2.216,2.216,0,0,0-.3-.027A14.1,14.1,0,0,1,0,4.731,13.991,13.991,0,0,1,.42,1.423a2.251,2.251,0,0,0,.3-.041A40.352,40.352,0,0,1,6.222,0,44.152,44.152,0,0,0,6.222,9.461Z" transform="translate(2.711 11.535)" fill="#fff"/>
    <path id="Vector-7" data-name="Vector" d="M6.222,4.731A14.1,14.1,0,0,1,5.8,8.051a2.216,2.216,0,0,0-.3.027A40.858,40.858,0,0,1,0,9.461,42.464,42.464,0,0,0,0,0,38.459,38.459,0,0,1,5.5,1.383a1.129,1.129,0,0,0,.3.041A14.081,14.081,0,0,1,6.222,4.731Z" transform="translate(23.598 11.535)" fill="#fff"/>
    <path id="Vector-8" data-name="Vector" d="M9.461,0A38.011,38.011,0,0,1,8.078,5.5a2.251,2.251,0,0,0-.041.3,13.99,13.99,0,0,1-3.307.42A14.1,14.1,0,0,1,1.41,5.8a2.216,2.216,0,0,0-.027-.3A40.352,40.352,0,0,1,0,0,42.412,42.412,0,0,0,4.731.3,42.209,42.209,0,0,0,9.461,0Z" transform="translate(11.535 23.598)" fill="#fff"/>
    <path id="Vector-9" data-name="Vector" d="M10.523,10.523a40.717,40.717,0,0,1-10.2,0,40.716,40.716,0,0,1,0-10.2,40.716,40.716,0,0,1,10.2,0A40.717,40.717,0,0,1,10.523,10.523Z" transform="translate(10.844 10.844)" fill="#fff"/>
    <path id="Vector-10" data-name="Vector" d="M0,0H32.531V32.531H0Z" transform="translate(0)" fill="none" opacity="0"/>
    <path id="Vector-11" data-name="Vector" d="M0,0H32.531V32.531H0Z" transform="translate(32.531 32.531) rotate(180)" fill="none" opacity="0"/>
  </g>
</svg>
